<svg version="1.2" xmlns="http://www.w3.org/2000/svg" viewBox="0 0 732 630" width="732" height="630"><style>tspan{white-space:pre}.a{fill:#f2f2f2}.b{fill:#ffb6b6}.c{fill:#2f2e41}.d{fill:#3f3d56}.e{fill:#a0616a}.f{fill:#6c63ff}.g{fill:#fd6584}.h{fill:#e6e6e6}.i{fill:#ccc}.j{fill:#fff}.k{font-size: 40px;fill: #3f3d56;font-weight: 700;font-family: "Lora-Bold", "Lora"}</style><path class="a" d="m304.1 547l8-26q-3.6-4-7.6-7.5-4.1-3.4-8.5-6.4-4.5-3-9.2-5.4-4.8-2.4-9.8-4.2c13.1 21.7 0.4 50.1 5.7 74.9 0.9 3.9 2.1 7.6 3.8 11.2 1.7 3.6 3.8 6.9 6.3 10 2.4 3.1 5.2 6 8.2 8.4 3.1 2.5 6.4 4.7 10 6.4l12.1 15c3.2-5.5 5.7-11.4 7.6-17.5 1.9-6.1 3.2-12.3 3.8-18.7 0.5-6.3 0.4-12.7-0.4-19-0.8-6.4-2.3-12.6-4.5-18.6q-0.9-2.5-2-5-1.1-2.4-2.3-4.8-1.3-2.4-2.7-4.7-1.4-2.3-2.9-4.5c-7.2 8.5-15.6 16.4-15.6 16.4z"/><path class="a" d="m260.2 550.3l-4.5-26.8q-4.9-2-10.1-3.3-5.2-1.3-10.5-2-5.3-0.7-10.6-0.7-5.3 0-10.6 0.6c21.4 13.6 22.7 44.6 38.5 64.5 2.5 3.1 5.3 5.9 8.4 8.3 3.1 2.4 6.5 4.5 10 6.2 3.6 1.7 7.4 3 11.2 3.8 3.9 0.9 7.8 1.3 11.8 1.3l17.5 8c0.4-6.3 0-12.7-1-19-1-6.3-2.7-12.5-5-18.4-2.3-5.9-5.3-11.6-8.8-16.9-3.6-5.3-7.7-10.2-12.3-14.6q-2-1.8-4-3.6-2.1-1.7-4.3-3.3-2.1-1.5-4.4-3-2.3-1.4-4.6-2.7c-2.7 10.8-6.7 21.6-6.7 21.6z"/><path class="b" d="m521.5 616.7h-12.3l-5.8-47.4h18.1v47.4z"/><path class="c" d="m524.7 628.7h-39.7v-0.5c0-2.1 0.4-4.1 1.2-6 0.8-1.8 1.9-3.5 3.3-5 1.5-1.4 3.2-2.5 5-3.3 1.9-0.8 3.9-1.2 6-1.2l7.2-5.5 13.5 5.5h3.5z"/><path class="b" d="m720.2 571.9l-8.4 9-38.7-28.1 12.4-13.3 34.7 32.4z"/><path class="c" d="m731.1 577.7l-27.1 29-0.3-0.3c-1.5-1.4-2.7-3.1-3.5-4.9-0.9-1.9-1.4-3.8-1.4-5.9-0.1-2 0.2-4 0.9-5.9 0.7-1.9 1.8-3.7 3.2-5.1l0.9-9.1 13.3-6.1 2.3-2.6z"/><path class="c" d="m702 545.2l-13 27.2-79.8-52.9-11.6-15.8-38.1-51.9-15.5 24.6-10.8 25.7q-2.6 1.7-4.8 3.9-2.2 2.3-3.8 5-1.7 2.7-2.7 5.6-1 3-1.3 6.1l-0.5 4.6 6.8 61.2-25.9 7.9-14.8-82.2 4.8-17.8 5-25 25.2-79h67.4l38.6 82.2 2.8 16.8 11 12.6z"/><path class="d" d="m562 263.1l11.4 8.7 13.6 4.2c0 0 5.7 79.5 10.8 84.6 5.1 5.1 0.5 5.2 1.5 11.9 1 6.6 3.5 20.1 3.5 20.1-34.4 18.2-64 18.7-87.8-2.6q-0.3-1-0.1-2 0.1-1 0.5-1.9 0.5-0.9 1.2-1.6 0.7-0.7 1.6-1.2c4.4-2.3-4.1-13.3-0.5-15.1 3.7-1.9-1.4-17.8-1.4-17.8l3.3-33.2-2.6-5.3 6.4-32.5 11.2-4.1 4.5-10.7z"/><path class="b" d="m569.1 404.5c0-1.4 0.2-2.9 0.8-4.2 0.6-1.3 1.4-2.5 2.5-3.5 1-0.9 2.3-1.6 3.7-2.1 1.4-0.4 2.8-0.5 4.2-0.3l16-31 8.9 15.8-16.5 27c-0.5 2.4-1.9 4.5-3.8 6-2 1.4-4.4 2.1-6.8 1.9-2.4-0.3-4.6-1.4-6.3-3.1-1.6-1.8-2.6-4.1-2.7-6.5z"/><path class="d" d="m596 396.9l34.3-53.1-0.1-0.3c-0.1-0.3-7.9-17-15.4-32.4-1.2-2.3-2.3-4.7-3.4-6.9q-0.8-1.4-1.5-2.8c-3.1-6.3-5.9-11.4-7.5-13.9q-1.4-2-3.1-3.8-1.7-1.8-3.6-3.3-2-1.5-4.2-2.6-2.2-1.2-4.5-1.9l-0.2-0.1-0.1 0.1c-1.5 0.7-3 1.6-4.2 2.7-1.2 1.1-2.2 2.4-3 3.9-0.8 1.4-1.4 3-1.6 4.7-0.3 1.6-0.3 3.3 0 4.9q1.1 5.9 2.9 11.7 1.8 5.8 4.3 11.3 2.4 5.5 5.5 10.7 3 5.2 6.7 10.1l5.5 7.3-19.3 42z"/><path class="b" d="m478.2 193.3c0.9 1 1.6 2.3 2 3.7 0.4 1.4 0.5 2.8 0.3 4.2-0.3 1.5-0.8 2.8-1.6 4-0.8 1.2-1.9 2.2-3.1 2.9l7.2 34.2-16.9-6.6-4.2-31.5c-1.1-2.1-1.4-4.6-0.8-7 0.6-2.3 2-4.4 4.1-5.7 2-1.4 4.4-1.9 6.8-1.6 2.4 0.3 4.6 1.5 6.2 3.4z"/><path class="d" d="m462 216.1l6.9 62.9 0.2 0.1c0.2 0.1 8.9 4.3 19.5 9.4 1.8 0.8 1.5 4.5 3.4 5.4 1.3 0.6 4.7-1.6 6-1 11.6 5.4 23.3 10.7 28 12.1q2.3 0.8 4.8 1.1 2.4 0.4 4.9 0.3 2.4-0.1 4.9-0.6 2.4-0.5 4.7-1.4l0.1-0.1 0.1-0.1c0.8-1.5 1.3-3.1 1.6-4.7 0.2-1.6 0.2-3.3-0.1-4.9-0.3-1.7-0.9-3.2-1.7-4.7-0.9-1.4-1.9-2.7-3.2-3.8q-4.6-3.9-9.6-7.3-5-3.3-10.4-6.1-5.4-2.7-11.1-4.8-5.6-2.2-11.5-3.6l-8.9-2.2-11.4-44.8z"/><path class="b" d="m549.9 259.6c-12.4 0-22.4-10-22.4-22.4 0-12.4 10-22.5 22.4-22.5 12.4 0 22.5 10.1 22.5 22.5 0 12.4-10.1 22.4-22.5 22.4z"/><path class="c" d="m527.7 222.1c1.8-5.3 11-9.1 25.9-9.6 14.9-0.5 18.6 17 18.6 17 10 8.1-10.6 29.7-11.6 28.9l0.5-4c0.7-6.8 3.9-12-0.1-19h-3.9q-7.4 1.5-14.9 2.9l5.9-5.2-0.2-0.2q-0.9 0.5-1.9 0.9-0.9 0.4-1.9 0.7-1.1 0.3-2.1 0.5-1 0.2-2.1 0.3c-3.1 0.2-6.6-1.1-8.1-3.8q-0.1-0.3-0.3-0.6-0.1-0.3-0.2-0.6-0.1-0.3-0.1-0.7-0.1-0.3-0.1-0.6c-4.3 1.7-6.2 7-6.2 7 0 0 0.9-8.5 2.8-13.9z"/><path class="c" d="m90.4 223.5q-0.1-0.2-0.3-0.3-0.1-0.2-0.2-0.3-0.1-0.1-0.3-0.3-0.1-0.1-0.2-0.2 0.1-0.2 0.2-0.4z"/><path class="c" d="m94.7 313.7c-3.6 6.5-11 10.1-18.2 11.9q-3.1 0.8-6.2 1.2-3.1 0.4-6.3 0.3-3.1-0.1-6.2-0.6-3.1-0.4-6.1-1.4-1.6-0.5-3.1-1.1 0.2-0.5 0.4-1 0.1-0.4 0.3-0.9 0.1-0.5 0.2-1 0.1-0.5 0.2-1 0.2-0.7 0.3-1.3 0.1-0.7 0.2-1.4 0-0.7 0.1-1.4 0-0.7 0-1.3-0.3 0.5-0.6 1.1-0.4 0.6-0.8 1.1-0.4 0.6-0.8 1.1-0.4 0.5-0.9 0.9-0.4 0.4-0.7 0.8-0.4 0.3-0.8 0.6-0.5 0.4-0.9 0.7-0.4 0.3-0.9 0.5-1.3-0.8-2.6-1.8-1.3-1-2.5-2.1-1.2-1.1-2.3-2.3-1.1-1.2-2-2.5 0.2-0.6 0.5-1.2 0.3-0.8 0.5-1.6 0.3-0.7 0.5-1.5 0.2-0.8 0.4-1.6 0.2-0.8 0.4-1.6 0.2-1.1 0.4-2.2 0.2-1.1 0.3-2.2 0.1-1.2 0.2-2.3 0-1.1 0-2.2-0.5 1-1 1.9-0.6 0.9-1.2 1.8-0.7 0.8-1.4 1.7-0.7 0.8-1.4 1.6-0.3 0.2-0.5 0.4-0.2 0.3-0.5 0.5-0.2 0.2-0.5 0.5-0.2 0.2-0.5 0.4-0.8-2.4-1.1-4.9-0.3-2.5-0.1-5.1 0.2-2.5 0.9-4.9 0.7-2.5 1.9-4.7c4.2-7.8 12.4-12.5 19.7-17.5 7.3-5.1 14.6-11.9 15.2-20.8 0.4-6-2.4-11.9-1.3-17.8 0.5-2.5 1.7-4.8 3.3-6.7 1.7-1.9 3.9-3.3 6.3-4 2.4-0.7 5-0.8 7.5-0.2 2.4 0.7 4.6 2 6.4 3.8-4.1 5.8-8.3 11.9-9.9 18.9-1.7 7.1-0.3 15.4 5.3 20.1 1.9 1.6 4.2 2.8 5.7 4.8 2 2.7 2 6.3 2.3 9.6 0.7 6.4 2.8 12.6 3.9 19 1.1 6.3 1.2 13.2-2 18.9z"/><path class="e" d="m19.5 578.2l9.8 7.5 33.6-34-14.4-11.1-29 37.6z"/><path class="c" d="m19.9 570.8l16.1 11-5.1 6.6 6.9 21.4c0.3 1.1 0.3 2.2-0.1 3.3-0.3 1-1 1.9-1.9 2.6-0.9 0.6-2 0.9-3.1 0.9-1.1 0-2.2-0.4-3.1-1.1l-18.3-14.1 1.9-9-6.3 5.6-6.9-5.4z"/><path class="c" d="m68.9 242.4c0 7.7 3.8 15 10.2 19.3 6.4 4.3 14.6 5.2 21.7 2.3 7.2-2.9 12.5-9.2 14.1-16.7 1.6-7.6-0.7-15.4-6-21l-0.1-0.1q-0.3-0.3-0.6-0.6 0 0 0 0 0 0 0 0 0 0 0 0 0 0 0 0-0.4-0.3-0.7-0.7c-4.1-3.5-9.9-7.4-15.8-7.4-12.8 0-22.8 12.1-22.8 24.9z"/><path class="e" d="m201.3 230.5c0.2 1.2 0 2.5-0.4 3.6-0.4 1.2-1.1 2.3-2 3.2-0.9 0.8-1.9 1.5-3.1 1.9-1.2 0.5-2.4 0.6-3.7 0.5l-57.5 52-9.9-15.7 59.7-46.1c0.3-2.1 1.4-4 3-5.3 1.6-1.3 3.6-2 5.7-2 2.1 0.1 4.1 1 5.6 2.4 1.5 1.4 2.5 3.4 2.6 5.5z"/><path class="f" d="m110 307.4c0 0 2.1 3.9 9.5-2.2 5.8-4.9 33.9-26.1 39.9-34.8q1 0.4 2.1 0.5 1.2 0 2.2-0.3 1.1-0.3 2-0.9 0.9-0.7 1.6-1.6l-16.6-14.5c-4.9 0.6-4.8 3.9-4.3 5.8l-12.5 5.7-32.3 20.6 6.8 18.8z"/><path class="e" d="m78.8 343.8l-1.2 5.7-1.1 21.2 45.1 2.5-1.4-32.6-4.4-7.2-37 10.4z"/><path class="e" d="m97.9 267.3c-10.8 0-19.5-8.7-19.5-19.5 0-10.8 8.7-19.5 19.5-19.5 10.7 0 19.5 8.7 19.5 19.5 0 10.8-8.8 19.5-19.5 19.5z"/><path class="f" d="m63.3 319.7l-0.1-16.2c0-2.9 0.4-5.8 1.4-8.5 0.9-2.8 2.4-5.3 4.2-7.6 1.8-2.2 3.9-4.2 6.4-5.7 2.4-1.6 5.1-2.7 7.9-3.4h0.1l3.8-5.2 15.7 1.6 2.9 5.9 11.3 6.7 4.4 14.1q1.4 0.9 2.6 2.1 1.2 1.2 2.1 2.7 0.9 1.4 1.6 3 0.6 1.6 0.9 3.3c1.4 9.4-5.2 18.9-6 20l-2 11.5-44.2 7.8h-0.4z"/><path class="c" d="m121.7 244.3q-0.8 0.6-1.7 1.1-0.9 0.5-1.8 1-0.8 0.5-1.7 0.9-0.9 0.5-1.9 0.9-0.9 0.5-1.8 0.9-1 0.4-1.9 0.7-1 0.4-2 0.7-1 0.3-2 0.5-0.2-0.6-0.6-1.2-0.3-0.6-0.6-1.2-0.4-0.6-0.7-1.2-0.4-0.6-0.8-1.1 0.1 0.6 0.1 1.3 0.1 0.7 0.1 1.3 0 0.7-0.1 1.3 0 0.7-0.1 1.4-1.6 0.2-3.3 0.3-1.7 0.1-3.3-0.1-1.7-0.1-3.3-0.5-1.7-0.3-3.2-0.8l-3.7-6.2-0.3 6.9q-4.5 0.8-9.1 1.6-0.3 0.1-0.5 0.1c-1.9-8.5 0.8-17.9 6.7-23.6q2.2-2 4.9-3.4 2.8-1.4 5.7-2 3-0.6 6.1-0.3 3 0.3 5.8 1.4 0.8 0.3 1.5 0.6 0 0 0 0 0 0 0 0 0 0 0 0 0 0 0 0c0.3 0.2 0.5 0.5 0.8 0.5 13.3-1.5 13.8 8.8 12.7 18.2z"/><path class="e" d="m89.3 553.1l9.7 7.5 33.6-34.1-14.4-11-28.9 37.6z"/><path class="c" d="m90.6 546.4l16.1 10.9-5.1 6.6 6.9 21.4c0.3 1.1 0.3 2.2 0 3.3-0.4 1-1.1 1.9-2 2.6-0.9 0.6-2 1-3.1 0.9-1.1 0-2.2-0.4-3-1l-18.4-14.2 1.9-8.9-6.3 5.6-6.9-5.4z"/><path class="c" d="m57.7 511.5v-0.1l4.6-8-4.7-10.3-0.2-26.7 0.8-4q0.4-2 0.5-4 0.1-2 0-4.1-0.1-2-0.4-4-0.4-2.1-1-4l-0.1-16.2c-0.1-4.1 6.2-7.7 4.7-11-13.9-32 14.1-56.5 14.3-56.6l0.6-0.6 3.1 2.3h3l39.9 7.3 0.3 0.5c1.5 3 4.6 13.1 4.7 17.7 2 2.3 24.7 28.5 26.7 30.4 13.6 12.3 21.4 32.7 24.8 43.7q0.7 2.1 0.8 4.2 0.1 2.1-0.3 4.3-0.3 2.1-1.2 4-0.9 2-2.3 3.7l-51.5 56.4-13.9-12.8 27.9-50.8-2-5.2q-1.3-0.2-2.6-0.7-1.3-0.5-2.5-1.2-1.1-0.6-2.2-1.5-1-0.9-1.9-1.9l-5.7-6.7q-0.5-0.7-1-1.5-0.5-0.8-0.9-1.6-0.3-0.8-0.6-1.7-0.2-0.9-0.3-1.8l-3.4-0.4-12.3-12.8-8.5 77-2.3 6.1-40.3 47.4-17.1-10.7z"/><path class="e" d="m51.5 180.7c-0.8 1-1.3 2.1-1.6 3.3-0.3 1.2-0.3 2.5-0.1 3.7 0.3 1.2 0.8 2.3 1.5 3.3 0.8 1 1.7 1.9 2.8 2.5l-12.8 37.9 10.5 40.2 16.8-7.7-10.4-30.3 7.8-44.1c0.9-1.9 1-4.1 0.4-6.1-0.6-2-1.9-3.7-3.7-4.8-1.8-1-3.9-1.4-6-1.1-2 0.4-3.9 1.5-5.2 3.2z"/><path class="f" d="m66.9 304.7c0 0-3.9 2.1-6.7-7-2.2-7.3-17.2-46.9-17.5-57.5q-1-0.3-2-0.8-1-0.6-1.7-1.4-0.7-0.9-1.1-1.9-0.4-1.1-0.5-2.2l21.8-3c3.8 3.2 1.9 5.9 0.5 7.2l7.4 12.6 15.5 34-12.8 18.5z"/><path class="g" d="m78 252.8c1.1-3.3 2.7-6.5 4.6-9.5 2-2.9 4.4-5.6 7-7.9 2.7-2.4 5.7-4.3 8.9-5.8 3.2-1.6 6.5-2.7 10-3.3q0.1 0 0.3-0.1 0.1-0.1 0.2-0.1-0.4-0.3-0.8-0.5 0 0 0 0 0 0 0 0 0 0 0 0 0 0 0 0-0.4-0.3-0.7-0.7l-0.8 0.1c0 0-24.8-4-28.7 27.8z"/><path class="a" d="m398.3 469.9c-2.7 4.1-8.7 4.9-13.3 1.8-4.7-3.2-6.3-9-3.6-13.1 2.7-4 8.7-4.8 13.4-1.7 4.7 3.1 6.3 9 3.5 13z"/><path class="a" d="m343.3 317.9c-2.7 4.1-8.7 4.9-13.3 1.8-4.7-3.2-6.3-9-3.6-13.1 2.7-4 8.7-4.8 13.4-1.7 4.7 3.1 6.3 9 3.5 13z"/><path class="a" d="m573.3 551.9c-2.7 4.1-8.7 4.9-13.3 1.8-4.7-3.2-6.3-9-3.6-13.1 2.7-4 8.7-4.8 13.4-1.7 4.7 3.1 6.3 9 3.5 13z"/><path class="a" d="m108.3 62.9c-2.7 4.1-8.7 4.9-13.3 1.8-4.7-3.2-6.3-9-3.6-13.1 2.7-4 8.7-4.8 13.4-1.7 4.7 3.1 6.3 9 3.5 13z"/><path class="a" d="m325.3 14.9c-2.7 4.1-8.7 4.9-13.3 1.8-4.7-3.2-6.3-9-3.6-13.1 2.7-4 8.7-4.8 13.4-1.7 4.7 3.1 6.3 9 3.5 13z"/><path class="h" d="m222.6 417.7c-2.7 4-8.7 4.8-13.3 1.7-4.7-3.1-6.3-9-3.6-13 2.7-4.1 8.7-4.9 13.4-1.8 4.7 3.2 6.3 9 3.5 13.1z"/><path class="i" d="m670.3 629.6h-650.3c-0.3 0-0.6-0.1-0.9-0.3-0.2-0.3-0.3-0.6-0.3-0.9 0-0.3 0.1-0.6 0.3-0.8 0.3-0.2 0.6-0.4 0.9-0.4h650.3c0.3 0 0.6 0.2 0.8 0.4 0.2 0.2 0.4 0.5 0.4 0.8 0 0.3-0.2 0.6-0.4 0.9-0.2 0.2-0.5 0.3-0.8 0.3z"/><path class="h" d="m141 234.2c-2.7 0-5.4-0.5-7.9-1.5-2.6-1-4.9-2.4-6.9-4.2-2-1.9-3.7-4-4.9-6.4-1.3-2.5-2-5.1-2.3-7.8l-12.7-117.9c-0.3-2.9-0.1-5.8 0.7-8.6 0.9-2.8 2.2-5.4 4.1-7.7 1.8-2.2 4-4.1 6.6-5.5 2.6-1.4 5.4-2.3 8.3-2.6l376.9-40.6c2.9-0.3 5.9-0.1 8.6 0.8 2.8 0.8 5.5 2.1 7.7 4 2.3 1.8 4.2 4.1 5.6 6.6 1.4 2.6 2.3 5.4 2.6 8.3l12.7 117.9c0.3 2.9 0 5.8-0.8 8.6-0.8 2.8-2.2 5.4-4 7.7-1.8 2.3-4.1 4.1-6.7 5.5-2.5 1.4-5.3 2.3-8.2 2.6l-0.1-0.5 0.1 0.5-377 40.6q-0.3 0.1-0.6 0.1-0.3 0-0.6 0-0.3 0-0.6 0.1-0.3 0-0.6 0z"/><path class="j" d="m498.8 36.9q-0.3 0-0.6 0-0.2 0-0.5 0-0.3 0-0.5 0-0.3 0-0.5 0.1l-363.4 39.1c-2.6 0.3-5 1-7.3 2.3-2.2 1.2-4.2 2.8-5.8 4.8-1.6 2-2.8 4.3-3.5 6.8-0.7 2.4-0.9 5-0.7 7.5l6.4 59.6c1.1 9.7 4 19 8.7 27.5 4.6 8.5 10.9 16 18.4 22.1 7.6 6.1 16.2 10.6 25.5 13.4 9.3 2.7 19.1 3.6 28.7 2.5l255.5-27.5c9.6-1 19-3.9 27.4-8.6 8.5-4.6 16-10.9 22.1-18.4 6-7.5 10.5-16.2 13.3-25.4 2.7-9.3 3.6-19 2.5-28.6l-6.4-59.9c-0.3-2.3-1-4.6-2-6.7-1.1-2.2-2.6-4.1-4.4-5.6-1.7-1.6-3.8-2.9-6-3.7-2.2-0.9-4.6-1.3-6.9-1.3z"/><path class="d" d="m133 101.4c-4.4 0-8-3.6-8-8 0-4.4 3.6-8 8-8 4.4 0 8 3.6 8 8 0 4.4-3.6 8-8 8z"/><path class="d" d="m491 61.4c-4.4 0-8-3.6-8-8 0-4.4 3.6-8 8-8 4.4 0 8 3.6 8 8 0 4.4-3.6 8-8 8z"/><path class="j" d="m385.4 191.8l23.6-3.9c0.4-0.1 0.8-0.3 1-0.6 0.2-0.4 0.3-0.8 0.3-1.2-0.1-0.3-0.3-0.7-0.6-0.9-0.4-0.3-0.8-0.4-1.2-0.3l-23.6 3.9c-0.4 0.1-0.8 0.3-1 0.6-0.2 0.4-0.3 0.8-0.3 1.1 0.1 0.4 0.3 0.8 0.6 1 0.4 0.3 0.8 0.3 1.2 0.3z"/><path class="j" d="m387.3 203.6l23.7-3.9c0.4-0.1 0.7-0.3 1-0.6 0.2-0.3 0.3-0.7 0.2-1.1 0-0.4-0.3-0.8-0.6-1-0.3-0.2-0.7-0.3-1.1-0.3l-23.7 4c-0.4 0-0.7 0.2-1 0.6-0.2 0.3-0.3 0.7-0.2 1.1 0.1 0.4 0.3 0.7 0.6 1 0.3 0.2 0.7 0.3 1.1 0.2z"/><path class="j" d="m389.3 215.5l23.7-4c0.3 0 0.7-0.2 0.9-0.6 0.3-0.3 0.4-0.7 0.3-1.1-0.1-0.4-0.3-0.7-0.6-1-0.3-0.2-0.7-0.3-1.1-0.2l-23.7 3.9c-0.4 0.1-0.8 0.3-1 0.6-0.2 0.3-0.3 0.7-0.3 1.1 0.1 0.4 0.3 0.8 0.7 1 0.3 0.2 0.7 0.3 1.1 0.3z"/><text style="transform:matrix(.995,-0.101,.101,.995,318.562,114.567)" ><tspan x="-120.4" y="0" class="k">No </tspan><tspan  y="0" class="k">P</tspan><tspan  y="0" class="k">revious </tspan><tspan  y="0" class="k">
</tspan><tspan x="-70.5" y="48" class="k">S</tspan><tspan  y="48" class="k">prints
</tspan></text><text style="transform:matrix(1,0,0,1,-1,43)" ></text></svg>