<?xml version="1.0" encoding="utf-8"?>
<!-- Generator: Adobe Illustrator 19.0.0, SVG Export Plug-In . SVG Version: 6.00 Build 0)  -->
<svg version="1.1" id="Layer_1" xmlns="http://www.w3.org/2000/svg" xmlns:xlink="http://www.w3.org/1999/xlink" x="0px" y="0px"
	 viewBox="0 0 1024 400" style="enable-background:new 0 0 1024 400;" xml:space="preserve">
<style type="text/css">
	.st0{fill:#74201D;}
	.st1{font-family:'Roboto-Medium';}
	.st2{font-size:156.6382px;}
	.st3{fill:#195076;}
	.st4{fill:#754A99;}
</style>
<g id="XMLID_1_">
	<g id="XMLID_1092_">
		<text id="XMLID_124_" transform="matrix(1 0 0 1 36.996 357.2888)"><tspan x="0" y="0" class="st0 st1 st2">Tri</tspan><tspan x="190.1" y="0" class="st3 st1 st2">Service</tspan><tspan x="707.3" y="0" class="st4 st1 st2">Pro</tspan></text>
	</g>
	<g id="XMLID_1124_">
		<g id="XMLID_946_">
			<path id="XMLID_950_" class="st4" d="M585.2,44.7h102.9c17.1,0,29.6,3.9,37.4,11.6c7.8,7.8,11.6,20.2,11.6,37.4v24.5
				c0,17.1-3.9,29.6-11.6,37.4c-7.8,7.8-20.2,11.6-37.4,11.6h-58.8v49h-44.1V44.7z M693,93.7c0-9.8-4.9-14.7-14.7-14.7h-49v53.9h49
				c9.8,0,14.7-4.9,14.7-14.7V93.7z"/>
		</g>
		<path id="XMLID_151_" class="st3" d="M573.6,42.8c-2.7,9.3-5.2,18.2-7.7,27.1c-0.9,3.2-2.2,6.4-2.8,9.7c-0.5,2.8-1.9,3.5-4.6,3.5
			c-16.3-0.1-32.6,0.2-49-0.2c-5-0.1-7.3,2-8.3,6.3c-0.5,2.5-0.9,5.3-0.4,7.9c1.3,6.9,2.8,7.9,9.8,7.9c11.5-0.1,23.1,0.1,34.6,0
			c9.4-0.1,15.9,4.8,21,12c7.4,10.5,10.6,22.5,12.4,35c1.9,13.4,1.6,26.7-2.4,39.7c-1.6,5.2-4,10.3-6.9,14.8
			c-5.2,8-12.8,11.8-22.5,11.6c-50.6-0.8-101.3-1.5-151.9-2.2c-1.4,0-2.7-0.1-5-0.2c1.6-1.9,2.8-3.2,3.8-4.6
			c7.7-10.2,15.6-20.3,23.1-30.7c1.8-2.4,3.3-3.5,6.4-3.4c30,0.4,59.9,0.7,89.9,1c9.8,0.1,19.7,0,29.5,0.2c4.8,0.1,7.8-2.1,9.3-6.4
			c2.7-7.4,2-14.7-1.2-21.7c-1.1-2.5-2.9-3.3-6-3.3c-14.2,0.3-28.4,0-42.6-0.2c-1.5,0-3.2-1.1-4.5-2c-14.1-9.2-21.6-22.7-23.7-39
			c-2.2-17.3,0.7-33.9,9.1-49.3c1.3-2.5,3-4.8,4.7-7c3.4-4.3,7.5-6.4,13.4-6.4c22.6,0.3,45.3,0,67.9,0
			C570.3,42.8,571.7,42.8,573.6,42.8z"/>
		<path id="XMLID_1025_" class="st0" d="M486.4,41.8H304.3v0c-0.1,0-0.1,0-0.2,0c-2.5,0-3.4,1.2-4.3,3.1
			c-5.4,11.4-10.8,22.9-16.2,34.3c-0.4,0.9-0.6,1.8-1.3,3.6c29.2,0,57.8,0,86.7,0c0,45.6,0,90.2,0,134.9c0.4,0.2,0.7,0.4,1.1,0.6
			c1-0.9,2.1-1.7,2.9-2.7c11.5-13.1,23.1-26.2,34.4-39.4c1.5-1.7,2.5-4.4,2.5-6.7c-0.1-27.2-0.3-54.3-0.6-81.5c0-1.6,0-3.3,0-5.3
			c2.1,0,3.6,0,5.2,0c15.5,0,31,0,46.4,0c6.8,0,6.9,0,8.3-6.6c1.2-5.8,2.9-11.4,5.1-16.7C476.6,54.7,480.2,49.1,486.4,41.8z"/>
	</g>
</g>
</svg>
